<svg xmlns="http://www.w3.org/2000/svg" xmlns:xlink="http://www.w3.org/1999/xlink" width="1217" height="1200" viewBox="0 0 1217 1200"><defs><clipPath id="b"><rect width="1217" height="1200"/></clipPath></defs><g id="a" clip-path="url(#b)"><rect width="1217" height="1200" fill="rgba(255,255,255,0)"/><path d="M3279.436,2988.177c.45.829,49.444,208.194-117.173,309.425-182.268,110.742-2.17,153.084,43.4,296.4s17.359,221.484-203.966,206.826-998.135,17.914-1008.985,14.658-180.1-58.629-149.72-260.57,375.385-175.883,329.818-312.682c-46.692-140.176-71.079-191.688-42.962-286.356,5.981-20.133,11.993-39.394,32.113-58.9,40.218-38.987,109.714-52.687,199.626-55.371,175.942-5.251,207.354,38.327,358.027,45.6C2939.139,2897.8,3144.784,2740.385,3279.436,2988.177Z" transform="matrix(-0.995, 0.105, -0.105, -0.995, 3297.211, 3642.311)" fill="#e5edf3"/><g transform="translate(-157.076 -4178.795)"><g transform="translate(192.847 4419.406)"><path d="M489.1,4507.152" transform="translate(-192.847 -4419.406)" fill="none" stroke="#4f2926" stroke-miterlimit="10" stroke-width="1"/><path d="M464.3,5104.386l-4.113,147.243,151.355.822s-7.4-95.42,13.984-90.484,29.613,83.9,29.613,83.9H802.381l-40.306-182.613Z" transform="translate(-192.847 -4419.406)" fill="#08446b"/><path d="M342.557,4854.321l-44.419,347.953s-50.178,4.935-72.388,17.274-32.9,28.79-32.9,28.79l144.775-1.645s14.806-10.694,16.451-27.145l1.646-16.452L431.4,4899.563Z" transform="translate(-192.847 -4419.406)" fill="#fdaab4"/><path d="M800.736,4707.9s34.549,30.435,49.355,25.5,46.888-153.823,45.242-159.581-53.925-37.108-46.247-49.538,21.935-2.194,21.935-2.194-14.623-53.376-5.849-59.957,15.355,3.656,16.817,6.946,5.119,37.657,10.237,38.388-2.194-52.28,2.925-59.592,10.6-5.849,10.6-5.849,4.752,2.559,6.215,7.311-.731,53.743,4.021,55.205,1.463-46.8,6.581-53.011,11.333-4.387,13.527,4.753-2.925,44.968.366,45.7,5.483-37.656,11.7-37.656,8.774,2.193,8.043,11.333-3.656,20.108-2.925,28.516,8.043,54.108-2.194,63.979-11.7,3.656-11.7,9.871-4.57,245.313-45.15,261.764-134.9-41.129-134.9-41.129Z" transform="translate(-192.847 -4419.406)" fill="#fdaab4"/><path d="M309.654,4857.611c0-2.468,34.548-68.274,53.468-93.774s72.387-55.114,105.291-61.694,41.129-7.4,41.129-7.4,9.871,9.871,39.484,7.4,44.419-27.968,44.419-27.968,102.823-25.5,141.485-14.807,83.9,42.775,83.9,42.775l-54.29,106.113-31.259,5.758,46.888,264.049s-67.452,5.758-168.63,20.565-157.936,21.387-157.936,21.387L433.041,4904.5Z" transform="translate(-192.847 -4419.406)" fill="#71bb8d"/><path d="M462.106,4512.4s-9.323,61.968,35.1,103.1,77.871,4.387,89.387-16.451,10.42-65.807,11.517-76.226,1.1-26.871,1.1-26.871-95.968-30.162-109.677-23.581S462.106,4512.4,462.106,4512.4Z" transform="translate(-192.847 -4419.406)" fill="#fdaab4"/><path d="M493.364,4478.4s17.549,13.71,45.517,18.645,49.355,4.387,60.322-1.1,14.807-34-10.967-53.743-32.355-24.129-61.42-22.484-31.258,25.226-38.936,26.323-25.774,1.1-33.451,15.355-10.42,26.323-2.742,46.065,8.226,24.129,8.226,24.129S484.042,4518.981,493.364,4478.4Z" transform="translate(-192.847 -4419.406)" fill="#08446b"/><path d="M501.864,4616.32l7.678,78.42s13.984,20.016,37.016,14.532,41.678-10.968,44.968-21.387,1.919-13.71,1.919-13.71l-6.855-75.129S548.752,4653.336,501.864,4616.32Z" transform="translate(-192.847 -4419.406)" fill="#fdaab4"/><path d="M597.192,4540.734s8.775-12.431,20.474-8.775,13.527,18.646,9.505,28.151-13.527,12.43-19.376,12.43c-2.36,0-7.16,1.607-12.43-.365-.657-.246-1.188-.49-1.55-.667Q595.5,4556.121,597.192,4540.734Z" transform="translate(-192.847 -4419.406)" fill="#fdaab4"/><path d="M464.09,4552.8s-19.011-9.14-23.032,5.85,9.5,24.86,12.064,27.785,9.14,5.118,13.893,5.118,10.968-2.925,10.968-2.925Z" transform="translate(-192.847 -4419.406)" fill="#fdaab4"/><path d="M514.751,4581.5a120.452,120.452,0,0,0,26.506-2.376c14.258-2.925,16.452-8.774,18.645-5.85s-1.828,19.742-10.6,21.57-20.839,3.656-24.129,2.194S505.794,4581.68,514.751,4581.5Z" transform="translate(-192.847 -4419.406)" fill="#4f2926"/><path d="M502.248,4619.967a88.462,88.462,0,0,0,29.274,4.2c5.652-.147,13.242-.347,22.013-3.44,19.718-6.953,31-23.453,33.055-21.685.272.233.455.847-.246,2.673a49.565,49.565,0,0,1-5.56,12.668c-2.505,4.04-14.444,22-36.88,24C518.952,4640.607,503.359,4621.386,502.248,4619.967Z" transform="translate(-192.847 -4419.406)" fill="#fd8c8f"/><path d="M483.337,4519.089c.916-.044,30.975,1.274,30.975,1.274" transform="translate(-192.847 -4419.406)" fill="none" stroke="#4f2926" stroke-miterlimit="10" stroke-width="1"/><path d="M548.989,4518.371c.9-.176,30.83-3.252,30.83-3.252" transform="translate(-192.847 -4419.406)" fill="none" stroke="#4f2926" stroke-miterlimit="10" stroke-width="1"/><ellipse cx="7.567" cy="9.631" rx="7.567" ry="9.631" transform="translate(301.987 106.854)" fill="#4f2926"/><ellipse cx="7.567" cy="9.631" rx="7.567" ry="9.631" transform="translate(368.37 103.07)" fill="#4f2926"/><path d="M531.6,4524.578s-3.058,24.153,1.223,29.351,8.866,3.363,8.866,3.363" transform="translate(-192.847 -4419.406)" fill="none" stroke="#4f2926" stroke-miterlimit="10" stroke-width="1"/><ellipse cx="13.185" cy="11.809" rx="13.185" ry="11.809" transform="translate(290.522 134.37)" fill="#fd8c8f"/><ellipse cx="13.185" cy="11.809" rx="13.185" ry="11.809" transform="translate(366.65 129.554)" fill="#fd8c8f"/><rect width="30.268" height="13.758" rx="6.879" transform="translate(209.121 350.37)" fill="#fff"/><rect width="30.268" height="13.758" rx="6.879" transform="translate(289.666 408.411) rotate(62.207)" fill="#fff"/><rect width="30.268" height="13.758" rx="6.879" transform="translate(464.507 260.857) rotate(62.207)" fill="#fff"/><rect width="30.268" height="13.758" rx="6.879" transform="translate(416.676 408.464) rotate(-159.341)" fill="#fff"/><rect width="30.268" height="13.758" rx="6.879" transform="translate(348.535 505.376)" fill="#fff"/><rect width="30.268" height="13.758" rx="6.879" transform="translate(473.037 457.038) rotate(-65.058)" fill="#fff"/><rect width="30.268" height="13.758" rx="6.879" transform="translate(574.846 304.783) rotate(-65.058)" fill="#fff"/><rect width="30.268" height="13.758" rx="6.879" transform="translate(319.454 633.178) rotate(-159.341)" fill="#fff"/><rect width="30.268" height="13.758" rx="6.879" transform="translate(503.682 583.696) rotate(142.453)" fill="#fff"/></g><g transform="translate(646.129 4854.158)"><path d="M788.316,4857.648s-31.975-2.7-35.578,2.7-3.152,293.629-3.152,293.629,3.377,10.809,16.888,10.809,12.385-.225,12.385-.225Z" transform="translate(-749.568 -4854.158)" fill="#e5edf3"/><g transform="translate(10.574)"><path d="M761.295,4886.02s-2.252-27.471,16.663-30.173S1222,4854.5,1222,4854.5s13.51,2.252,14.862,21.617-.451,277.416-.451,277.416-3.152,10.808-17.564,14.411-443.145-4.5-443.145-4.5-14.411,1.8-15.312-25.67S761.295,4886.02,761.295,4886.02Z" transform="translate(-760.142 -4854.158)" fill="#81a7bb"/><path d="M1012.14,5232.791H848.813V5246.9l169.632,1.651,91.722-1.051.6-10.208-53.141-242.739s-77.461,0-84.666,2.252-3.6,20.266-3.6,20.266Z" transform="translate(-760.142 -4854.158)" fill="#d2e1ed"/></g></g><rect width="1216.151" height="136.662" rx="12" transform="translate(157.076 5242.133)" fill="#d2e1ed"/><g transform="translate(1076.57 4854.158)"><path d="M1354.809,5086.664s-68.138-43.319-60.015-77.614,26.623-23.916-7.22-71.3-12.635-62.272-3.61-72.65,19.855-15.794,16.7-47.832,7.671-46.93,20.757-45.576-.451,33.392,28.429,49.637,33.392,41.514,27.074,69.943-10.378,38.356.452,50.991,23.013,14.44,13.988,41.514-18.952,13.538-14.44,31.136,16.245,9.928,12.184,27.526-17.6,38.356-22.111,42.417S1354.809,5086.664,1354.809,5086.664Z" transform="translate(-1269.075 -4771.61)" fill="#2a8e63"/><path d="M1485.219,4781.171s-13.988,16.7-18.5,42.868-47.832,30.234-55.954,44.222-4.513,38.808.451,54.15,14.891,35.648,0,50.991-33.392,21.659-14.891,67.235,27.526,50.991,27.526,50.991,34.746-5.866,45.124-41.515c0,0-9.024-23.916-.451-30.684s30.685-14.891,29.782-35.649-13.537-29.331-3.61-49.185,40.161-38.356,31.588-72.2-29.783-26.623-20.306-56.4S1492.89,4781.622,1485.219,4781.171Z" transform="translate(-1269.075 -4771.61)" fill="#2a8e63"/><path d="M1346.839,5121.238a.835.835,0,0,0-.673-.215c-2.089.486.858,16.323,2.177,23.68,7.862,43.839,5.662,51.068,13.989,72.575,4.874,12.589,7.427,18.962,13.086,22.788,0,0,8.535,5.77,50.239.9h0s11.131-5.415,16.846-16.545,17.449-103.486,17.449-103.486Z" transform="translate(-1269.075 -4771.61)" fill="#81a7bb"/><path d="M1325.93,4837.125s5.415,121.386,22.562,187.719,22.111,90.249,22.111,90.249l-7.671.451s-23.014-81.675-31.136-160.643S1325.93,4837.125,1325.93,4837.125Z" transform="translate(-1269.075 -4771.61)" fill="#124025"/><path d="M1485.219,4842.992s-37.9,97.017-51.442,191.779l-9.476,77.614-6.769.9s8.123-72.651,20.307-135.374S1485.219,4842.992,1485.219,4842.992Z" transform="translate(-1269.075 -4771.61)" fill="#124025"/><rect width="132.365" height="15.042" rx="3.822" transform="translate(66.03 341.677)" fill="#a4d5f3"/></g></g></g></svg>