<svg xmlns="http://www.w3.org/2000/svg" xmlns:xlink="http://www.w3.org/1999/xlink" width="1600" height="1200" viewBox="0 0 1600 1200"><defs><clipPath id="b"><rect width="1600" height="1200"/></clipPath></defs><g id="a" clip-path="url(#b)"><rect width="1600" height="1200" fill="rgba(255,255,255,0)"/><g transform="translate(-1749.325 -2797.452)"><path d="M3056.8,3006.758c.381.934,41.8,234.508-99.057,348.535-154.089,124.739-1.835,172.433,36.688,333.86s14.675,249.478-172.433,232.968S1978.172,3942.3,1969,3938.631s-152.255-66.039-126.573-293.5,317.35-198.114,278.828-352.2c-39.473-157.893-60.09-215.916-36.32-322.55,5.056-22.678,10.139-44.373,27.148-66.342,34-43.915,92.752-59.347,168.764-62.37,148.741-5.915,175.3,43.171,302.675,51.364C2769.11,2904.962,2942.962,2727.646,3056.8,3006.758Z" fill="#e5edf3"/><rect width="1606.93" height="134.828" rx="12" transform="translate(1746.121 3865.255)" fill="#08446b"/><path d="M1932.538,3726.03c-.958.4-52.233-27.594-66.687-43.691s-19.382-30.223-5.585-41.392,41.392,19.382,53.875,39.092S1942.721,3721.76,1932.538,3726.03Z" fill="#2a8e63"/><path d="M1935.166,3633.391s-63.73-56.174-75.557-104.793,27.595-52.889,36.136-46.648,28.252,33.836,34.822,80.813S1935.166,3633.391,1935.166,3633.391Z" fill="#2a8e63"/><path d="M1961.446,3538.946s-64.058-93.624-74.406-156.205,11.333-85.74,46.319-92.638,52.232,36.464,54.2,80.32S1985.1,3502.482,1961.446,3538.946Z" fill="#0d5235"/><path d="M1989.533,3594.628s-4.434-116.291,23.16-164.582,65.044-30.058,72.928-19.71,14.29,45.827-23.652,103.479S1989.533,3594.628,1989.533,3594.628Z" fill="#2a8e63"/><path d="M2003.823,3717.325s-3.449-49.769,20.7-83.769,41.392-47.8,60.61-35.972-6.406,54.7-27.595,78.842S2003.823,3717.325,2003.823,3717.325Z" fill="#0d5235"/><line x2="62.58" y2="71.45" transform="translate(1890.489 3678.889)" fill="none" stroke="#124025" stroke-miterlimit="10" stroke-width="2"/><line x1="84.262" y2="135.509" transform="translate(1983.62 3617.295)" fill="none" stroke="#124025" stroke-miterlimit="10" stroke-width="2"/><path d="M1890,3518.743s40.9,83.276,58.146,155.712,16.754,80.319,16.754,80.319" fill="none" stroke="#124025" stroke-miterlimit="10" stroke-width="2"/><line x2="28.087" y2="10.841" transform="translate(1879.156 3543.874)" fill="none" stroke="#124025" stroke-miterlimit="10" stroke-width="2"/><path d="M1947.4,3355.393s19.956,249.829,20.7,294.177,0,105.7,0,105.7" fill="none" stroke="#124025" stroke-miterlimit="10" stroke-width="2"/><line x2="34.822" y2="36.793" transform="translate(1916.769 3376.5)" fill="none" stroke="#124025" stroke-miterlimit="10" stroke-width="2"/><line x2="35.15" y2="34.822" transform="translate(1920.383 3426.761)" fill="none" stroke="#124025" stroke-miterlimit="10" stroke-width="2"/><path d="M2050.143,3442.612s-60.61,121.218-69.479,209.176-6.652,99.044-6.652,99.044" fill="none" stroke="#124025" stroke-miterlimit="10" stroke-width="2"/><rect width="113.088" height="121.711" transform="translate(1913.32 3744.919)" fill="#7ba1bf"/><path d="M2341.018,3256.474c.3.886-.887,23.351,8.572,33.992s18.622,14.188,18.622,14.188l1.478-36.948Z" fill="#08446b"/><path d="M2382.044,3402.218s-127.694,14.188-171.145,55.866-70.941,171.144-78.921,235.878-10.642,85.128-10.642,85.128l134.788-15.075-.3,10.05-.591,59.118s341.4,3.547,344.062-.887-7.98-222.577,9.755-212.822,56.752,78.921,56.752,78.921l89.563-129.466s-104.638-137.448-158.73-165.824c0,0-45.225-15.962-83.355-15.075S2382.044,3402.218,2382.044,3402.218Z" fill="#71bb8d"/><path d="M2526.191,3158.458c5.946,16.276,27.83,81.859-5.123,140.3-8.192,14.529-23.7,42.033-55.062,49.766-33.625,8.29-62.214-11.884-67.114-15.478a90.228,90.228,0,0,1-31.135-42.171l-1.182-20.888s-23.647-1.576-35.077-24.041-.394-31.529,5.912-32.711,18.523,5.912,18.523,5.912-3.941-53.994,27.194-69.759c8.583-4.346,15.759-5.906,22.294-5.606,23.209,1.066,33.555,16.655,52.194,24.13C2470.677,3173.155,2491.931,3175.48,2526.191,3158.458Z" fill="#fdaab4"/><path d="M2512.468,3092.9s6.8,10.642,24.829,38.722,23.056,42.86-14.188,51.432-58.821-7.685-85.424-22.464-55.866-8.868-62.96,3.842-14.484,41.087-15.666,52.024-18.622-10.346-26.6,7.685-10.937,6.207-20.1-32.219-12.119-63.256-.887-76.557,16.553-11.528,26.9-7.685,12.414.591,15.37-5.616,15.371-36.357,69.463-41.382S2512.468,3092.9,2512.468,3092.9Z" fill="#08446b"/><path d="M2469.331,3347.5q-.932,35.538-1.863,71.077s2.365,13.006-27.194,14.976-74.093-28.376-74.093-28.376q1.358-59.259,2.717-118.518Z" fill="#fdaab4"/><path d="M2367.637,3289.828a207.429,207.429,0,0,0,40.013,38.178c16.542,11.986,32.557,23.251,52.662,21.172a48.712,48.712,0,0,0,9.707-2.025,18.425,18.425,0,0,1-2.9,5.923c-11.658,15.62-48.218,9.072-70.854-.993a107.019,107.019,0,0,1-28.28-18.5Q2367.808,3311.707,2367.637,3289.828Z" fill="#fd8c8f"/><path d="M2250.121,3764.363l2.751,7.929s86.311,1.182,164.937,12.415,95.77,14.188,114.1,1.773,43.155-21.282,63.846-17.735,36.653,30.741,36.653,30.741l-28.967,54.388s-54.782,13.6-81.188,8.079-32.712-14.188-32.712-14.188c-90.294,18.572-164.811,20.35-217.175,18.178-81.529-3.383-115.4-16.6-131.389-42.65-9.652-15.732-10.822-32.948-10.089-45.631Z" fill="#fdaab4"/><path d="M3069.282,3561.834s31.036-1.773,22.168,37.244-123.259,270.462-123.259,270.462l-381.306-.887,136.561-283.763s-9.755-15.075,41.677-19.508S3069.282,3561.834,3069.282,3561.834Z" fill="#7ba1bf"/><rect width="278.639" height="23.647" transform="translate(2613.331 3869.182) rotate(-180)" fill="#7ba1bf"/><path d="M2408.8,3202.58s20.637-10.548,36.688-4.586,16.51,9.63,16.51,9.63" fill="none" stroke="#4f2926" stroke-miterlimit="10" stroke-width="1"/><path d="M2492.72,3205.331s11.465-9.172,20.178-6.42a40.023,40.023,0,0,1,14.675,8.713" fill="none" stroke="#4f2926" stroke-miterlimit="10" stroke-width="1"/><path d="M2476.363,3217.713s22.471,38.064,12.841,48.612-19.72.917-19.72.917" fill="none" stroke="#4f2926" stroke-miterlimit="10" stroke-width="1"/><path d="M2451,3287.392s9.106,7.7,20.174,10.725,15.907-3.137,15.907-3.137" fill="none" stroke="#4f2926" stroke-miterlimit="10" stroke-width="1"/><path d="M2417.051,3223.675s5.045,16.51,20.178,14.675,16.51-15.133,16.51-15.133" fill="none" stroke="#4f2926" stroke-miterlimit="10" stroke-width="3"/><path d="M2494.525,3223.571s3.887,12.72,15.547,11.307,12.721-11.661,12.721-11.661" fill="none" stroke="#4f2926" stroke-miterlimit="10" stroke-width="3"/><ellipse cx="19.261" cy="18.65" rx="19.261" ry="18.65" transform="translate(2402.834 3255.777)" fill="#fd8c8f"/><path d="M2302.86,3422.707c32.1,39.439-39.44,130.242,56.866,161.427s84.382-77.045,104.561-94.472,89.885-1.834,79.8,92.637-69.707,117.4-115.567,90.8-67.873,32.1-88.968,54.115,3.669-132.994-94.472-101.809-148.586,93.554-72.458,66.955,2.751-59.618,11.923-106.4,44.943-68.79,95.389-42.191,141.248-10.089,154.089-53.2,138.5-115.567,169.682-29.351-10.09-33.019,34.853,28.433,50.446,87.134,45.86,105.478-71.541-82.548-99.057-40.357-19.261,110.981-33.937,156.841-71.541,7.338-102.726,25.682-132.076,30.267-157.758,10.089l-25.681-20.178" fill="none" stroke="#fff" stroke-miterlimit="10" stroke-width="1"/></g></g></svg>